<svg id="Layer_1" data-name="Layer 1" xmlns="http://www.w3.org/2000/svg" viewBox="0 0 443.05 443.05"><defs><style>.cls-1,.cls-4{fill:none;}.cls-1{stroke:#7a7b7b;stroke-width:18px;}.cls-1,.cls-5{stroke-miterlimit:10;}.cls-2{fill:#7a7b7b;}.cls-3,.cls-5{fill:#f36b21;}.cls-5{stroke:#f36b21;}</style></defs><title>new-svg</title><circle class="cls-1" cx="221.53" cy="221.53" r="212.53"/><path class="cls-2" d="M302.31,104.1c-22.34-2.64-90,0-90,0s.67-4-9.33-15.33-34.67,130-34.67,130l-18.67,118,71.88,74,72.12-74H249l-.67-90h50s63.13,3.83,65.33-65.67C365.6,119.41,326.75,107,302.31,104.1Zm-8.33,93c-11.3,2.12-46,0-46,0v-47s37.33-1.17,46,0c11.08,1.5,16.24,7.67,16,23.5C309.73,190.22,301,195.79,294,197.1Z"/><path class="cls-3" d="M145.31,108.54h-30.5l58.5-76,56,72-18.5.5s-14-2-13.5,15-1.5,166.5-1.5,166.5-11.5,57.5-71,53.5-67.5-50.5-66.5-81.5l-28.5.5,56-72.65,55.5,72.15h-30.5s-5.5,32.5,18.75,32.5c0,0,19.25,3,16.25-32.5Z"/><rect class="cls-3" x="317.56" y="326.6" width="7.25" height="7.5"/><polygon class="cls-3" points="253.06 249.44 256.68 249.44 256.68 271.85 269.31 271.85 269.31 275.6 253.06 275.6 253.06 249.44"/><rect class="cls-3" x="271.56" y="250.6" width="3.5" height="25"/><polygon class="cls-3" points="279.06 275.6 282.56 275.6 282.56 256.85 295.31 275.6 298.81 275.6 298.81 250.6 295.81 250.6 295.81 269.85 282.56 250.6 279.06 250.6 279.06 275.6"/><polygon class="cls-3" points="302.06 250.6 302.06 275.6 321.19 275.6 321.19 272.48 305.56 272.35 305.69 263.1 319.06 263.1 319.06 260.1 305.81 260.1 305.94 253.36 320.06 253.48 320.06 250.6 302.06 250.6"/><polygon class="cls-3" points="254.19 279.1 254.19 304.1 273.31 304.1 273.31 300.98 257.69 300.85 257.81 291.6 271.19 291.6 271.19 288.6 257.94 288.6 258.06 281.86 272.19 281.98 272.19 279.1 254.19 279.1"/><polygon class="cls-3" points="342.31 279.73 342.31 304.73 361.44 304.73 361.44 301.6 345.81 301.48 345.94 292.23 359.31 292.23 359.31 289.23 346.06 289.23 346.19 282.48 360.31 282.6 360.31 279.73 342.31 279.73"/><polygon class="cls-3" points="274.94 279.23 279.06 279.23 285.31 290.1 292.31 279.23 295.44 279.23 287.56 291.73 296.31 305.23 292.06 305.23 284.94 294.35 278.06 304.23 274.31 304.23 282.44 291.73 274.94 279.23"/><path class="cls-3" d="M309.44,323.23l6.25,2.63s-3.37,8.63-11.62,8.25-12.37-5.87-12.37-12.75,4.65-14.17,12.88-13.37c5.75.56,7.4,2.19,9.58,4.46l-5.46,4.67s-7.16-4.79-9.87,3.17c-.8,2.34.18,7.23,5.8,6.65C307.64,326.6,309.44,323.23,309.44,323.23Z"/><rect class="cls-3" x="254.19" y="308.53" width="7" height="25"/><polygon class="cls-3" points="265.19 333.53 272.69 333.53 272.8 318.95 281.81 333.53 288.94 333.53 288.94 308.53 282.19 308.53 282.19 322.73 272.81 308.53 265.19 308.53 265.19 333.53"/><path class="cls-4" d="M334.9,286.88c0-4.41-.61-4.6-3.71-5-2-.27-9,.06-9,.06l.28,8.88S334.9,292.84,334.9,286.88Z"/><path class="cls-3" d="M310.19,279.23l-12.75-.12v25h3.13v-9.87s15.49,3.13,15.49-6C316,281.47,314.81,280.48,310.19,279.23ZM301,291.8l-.28-9.88s5.93-.19,7.88.08c3.1.43,4.83,1.47,4.83,5.88C313.48,293.84,301,291.8,301,291.8Z"/><path class="cls-3" d="M332.56,293s5.88-.62,5.25-7.25c0,0-.62-5.5-4.62-6.5h-14V304.1h3V293.23l6.63.13,7.38,10.75h4Zm-10.09-2.18-.28-8.88s7-.33,9-.06c3.1.43,3.71.61,3.71,5C334.9,292.84,322.47,290.8,322.47,290.8Z"/><path class="cls-5" d="M366.17,296.77a6.48,6.48,0,0,0,.76,2.65,5.38,5.38,0,0,0,1.6,1.78,6.6,6.6,0,0,0,2.26,1,11.6,11.6,0,0,0,2.74.31,9.89,9.89,0,0,0,2.95-.39,5.72,5.72,0,0,0,2-1.06,4.16,4.16,0,0,0,1.16-1.55,4.7,4.7,0,0,0,.37-1.86,3.45,3.45,0,0,0-.68-2.21A5.12,5.12,0,0,0,377.6,294a11.37,11.37,0,0,0-2.49-.86q-1.4-.32-2.88-.64t-2.88-.73a9.41,9.41,0,0,1-2.49-1.14,5.69,5.69,0,0,1-1.76-1.84,5.46,5.46,0,0,1-.68-2.85,5.32,5.32,0,0,1,.55-2.34,5.89,5.89,0,0,1,1.63-2,8.23,8.23,0,0,1,2.72-1.4,12.41,12.41,0,0,1,3.77-.52,11.72,11.72,0,0,1,3.79.55,7.68,7.68,0,0,1,2.68,1.51,6.22,6.22,0,0,1,1.6,2.23,6.91,6.91,0,0,1,.53,2.7h-2.31a4.89,4.89,0,0,0-.52-2.31,4.45,4.45,0,0,0-1.4-1.6,6.23,6.23,0,0,0-2-.91,9.36,9.36,0,0,0-2.35-.29,8.93,8.93,0,0,0-3.11.47,5.5,5.5,0,0,0-2,1.22,4.05,4.05,0,0,0-1,1.66,3.67,3.67,0,0,0-.11,1.82,3.08,3.08,0,0,0,1,1.82,6.35,6.35,0,0,0,1.92,1.12,15.43,15.43,0,0,0,2.51.72l2.79.59q1.42.31,2.75.73a8.78,8.78,0,0,1,2.36,1.14,5.4,5.4,0,0,1,1.65,1.84,5.77,5.77,0,0,1,.62,2.82,5.88,5.88,0,0,1-2.45,5,11.52,11.52,0,0,1-6.9,1.79,13.83,13.83,0,0,1-3.7-.47,8.45,8.45,0,0,1-2.95-1.43,6.67,6.67,0,0,1-1.94-2.38,7.52,7.52,0,0,1-.69-3.34Z"/><path class="cls-5" d="M386.61,296.77a6.48,6.48,0,0,0,.76,2.65,5.38,5.38,0,0,0,1.6,1.78,6.6,6.6,0,0,0,2.26,1,11.6,11.6,0,0,0,2.74.31,9.89,9.89,0,0,0,2.95-.39,5.72,5.72,0,0,0,2-1.06,4.16,4.16,0,0,0,1.16-1.55,4.7,4.7,0,0,0,.37-1.86,3.45,3.45,0,0,0-.68-2.21A5.12,5.12,0,0,0,398,294a11.37,11.37,0,0,0-2.49-.86q-1.4-.32-2.88-.64t-2.88-.73a9.41,9.41,0,0,1-2.49-1.14,5.69,5.69,0,0,1-1.76-1.84,5.46,5.46,0,0,1-.68-2.85,5.32,5.32,0,0,1,.55-2.34,5.89,5.89,0,0,1,1.63-2,8.23,8.23,0,0,1,2.72-1.4,12.41,12.41,0,0,1,3.77-.52,11.72,11.72,0,0,1,3.79.55,7.68,7.68,0,0,1,2.68,1.51,6.22,6.22,0,0,1,1.6,2.23,6.91,6.91,0,0,1,.53,2.7h-2.31a4.89,4.89,0,0,0-.52-2.31,4.45,4.45,0,0,0-1.4-1.6,6.23,6.23,0,0,0-2-.91,9.36,9.36,0,0,0-2.35-.29,8.93,8.93,0,0,0-3.11.47,5.5,5.5,0,0,0-2,1.22,4.05,4.05,0,0,0-1,1.66,3.67,3.67,0,0,0-.11,1.82,3.08,3.08,0,0,0,1,1.82,6.35,6.35,0,0,0,1.92,1.12,15.43,15.43,0,0,0,2.51.72l2.79.59q1.42.31,2.75.73a8.78,8.78,0,0,1,2.36,1.14,5.4,5.4,0,0,1,1.65,1.84,5.77,5.77,0,0,1,.62,2.82,5.88,5.88,0,0,1-2.45,5,11.52,11.52,0,0,1-6.9,1.79,13.83,13.83,0,0,1-3.7-.47,8.45,8.45,0,0,1-2.95-1.43A6.67,6.67,0,0,1,385,300.1a7.52,7.52,0,0,1-.69-3.34Z"/></svg>